/* XPM */
static char *_0407_01f60202de8af0d539af7c1662cc5045ac52b86c86f92ccdc6f71c2601ae51a9[] = {
/* columns rows colors chars-per-pixel */
"80 80 2 1 ",
"  c black",
". c None",
/* pixels */
"................................................................................",
"................................................................................",
"................................................................................",
"................................................................................",
"................................................................................",
"................................................................................",
"................................................................................",
"................................................................................",
"................................................................................",
"................................................................................",
"..................................            ..................................",
"..............................                    ..............................",
"..............................                      ............................",
".............................                         ..........................",
".............................                           ........................",
"..............................    ...........            .......................",
".....................    ........................          .....................",
"....................      .........................         ....................",
"...................       ...........................        ...................",
"..................       .............................        ..................",
".................       ................................       .................",
"................       ..................................       ................",
"................      ....................................      ................",
"................     ......................................      ...............",
"................    ........................................      ..............",
".................  .......   ...............................      ..............",
".........................     ...............................      .............",
".........................      ...............................     .............",
".........................       ..............................      ............",
".............  ...........       ..............................     ............",
"...........     ...........       .............................     ............",
"...........     ............       ............................      ...........",
"...........     .............       ............................     ...........",
"...........     ..............       ...........................     ...........",
"..........     ................       ..........................     ...........",
"..........     .................       ..........................     ..........",
"..........     ..................       ...........   ...........     ..........",
"..........     ...................       .........     ..........     ..........",
"..........     ....................       ........     ..........     ..........",
"..........     .....................       .......     ..........     ..........",
"..........     ......................       ......     ..........     ..........",
"..........     .......................       .....     ..........     ..........",
"..........     ........................       ....     ..........     ..........",
"..........     .........................       ...     ..........     ..........",
"..........     ..........................       ..     .........      ..........",
"..........      ..........................       .     .........     ...........",
"...........     ...........................            .........     ...........",
"...........     ............................           .........     ...........",
"...........     .............................          ........      ...........",
"............     .............................         ........     ............",
"............     ....................                  ........     ............",
"............      ..................                   .......      ............",
".............     ..................                   .......     .............",
".............      .................                   ......      .............",
"..............      .................                 ......      ..............",
"..............      .......................................      ...............",
"...............      ......................................      ...............",
"................      ....................................      ................",
"................       ..................................      .................",
".................       ...............................        .................",
"..................        ............................        ..................",
"...................        ..........................        ...................",
"....................         ......................         ....................",
".....................           ................          ......................",
".......................             ........             .......................",
"........................                               .........................",
"..........................                            ..........................",
"............................                        ............................",
"...............................                  ...............................",
"...................................          ...................................",
"................................................................................",
"................................................................................",
"................................................................................",
"................................................................................",
"................................................................................",
"................................................................................",
"................................................................................",
"................................................................................",
"................................................................................",
"................................................................................"
};
