/* XPM */
static char *_0386_8b6b0d9744038fa9ebd35bedb43e00ff3aa8c053cc8f990097b8ceefc7486f4d[] = {
/* columns rows colors chars-per-pixel */
"80 80 2 1 ",
"  c black",
". c None",
/* pixels */
"................................................................................",
"................................................................................",
"................................................................................",
"................................................................................",
"................................................................................",
"................................................................................",
"................................................................................",
"................................................................................",
"................................................................................",
"................................................................................",
"..................................            ..................................",
"...............................                   ..............................",
"............................                      ..............................",
"..........................                         .............................",
"........................                           .............................",
".......................            ...........    ..............................",
".....................          ........................    .....................",
"....................         .........................      ....................",
"...................        ...........................       ...................",
"..................        .............................       ..................",
".................       ................................       .................",
"................       ..................................       ................",
"................      ....................................      ................",
"...............      ......................................     ................",
"..............      ........................................    ................",
"..............      ...............................   .......  .................",
".............      ...............................     .........................",
".............     ...............................      .........................",
"............      ..............................       .........................",
"............     ..............................       ...........  .............",
"............     .............................       ...........     ...........",
"...........      ............................       ............     ...........",
"...........     ............................       .............     ...........",
"...........     ...........................       ..............     ...........",
"...........     ..........................       ................     ..........",
"..........      .........................       .................     ..........",
"..........     ...........   ...........       ..................     ..........",
"..........     ..........     .........       ...................     ..........",
"..........     ..........     ........       ....................     ..........",
"..........     ..........     .......       .....................     ..........",
"..........     ..........     ......       ......................     ..........",
"..........     ..........     .....       .......................     ..........",
"..........     ..........     ....       ........................     ..........",
"..........     ..........     ...       .........................     ..........",
"..........      .........     ..       ..........................     ..........",
"...........     .........     .       ..........................      ..........",
"...........     .........            ...........................     ...........",
"...........     .........           ............................     ...........",
"...........      ........          .............................     ...........",
"............     ........         .............................      ...........",
"............     ........                  ....................     ............",
"............      .......                   ..................      ............",
".............     .......                   ..................     .............",
".............      ......                   .................      .............",
"..............      ......                 .................      ..............",
"...............      .......................................      ..............",
"...............      ......................................      ...............",
"................      ....................................      ................",
".................      ..................................       ................",
".................        ...............................       .................",
"..................        ............................        ..................",
"...................        ..........................        ...................",
"....................         ......................         ....................",
"......................          ................           .....................",
".......................             .........            .......................",
".........................                               ........................",
"..........................                            ..........................",
"............................                        ............................",
"...............................                  ...............................",
"...................................          ...................................",
"................................................................................",
"................................................................................",
"................................................................................",
"................................................................................",
"................................................................................",
"................................................................................",
"................................................................................",
"................................................................................",
"................................................................................",
"................................................................................"
};
