/* XPM */
static char *_5170_9a3eb91a426af24c7b2ffbbba77238d4403cb7ad1e17a93944f593c007c3e7ce[] = {
/* columns rows colors chars-per-pixel */
"80 80 2 1 ",
"  c black",
". c None",
/* pixels */
"................................................................................",
"................................................................................",
"................................................................................",
"................................................................................",
"................................................................................",
"................................................................................",
"................................................................................",
"................................................................................",
"................................................................................",
"................................................................................",
"...................................          ...................................",
"...............................                  ...............................",
"............................                        ............................",
"..........................                            ..........................",
"........................                               .........................",
".......................            .........             .......................",
".....................           ................          ......................",
"....................         ......................         ....................",
"...................        ..........................        ...................",
"..................        ............................        ..................",
".................       ...............................        .................",
"................       ..................................      .................",
"................      ....................................      ................",
"...............      ......................................      ...............",
"..............      .......................................      ...............",
"..............      .................                 ......      ..............",
".............      .................                   ......      .............",
".............     ..................                   .......     .............",
"............      ..................                   .......      ............",
"............     ....................                  ........     ............",
"...........      .............................         ........     ............",
"...........     .............................          ........      ...........",
"...........     ............................           .........     ...........",
"...........     ...........................            .........     ...........",
"..........      ..........................       .     .........     ...........",
"..........     ..........................       ..     .........      ..........",
"..........     .........................       ...     ..........     ..........",
"..........     ........................       ....     ..........     ..........",
"..........     .......................       .....     ..........     ..........",
"..........     ......................       ......     ..........     ..........",
"..........     .....................       .......     ..........     ..........",
"..........     ....................       ........     ..........     ..........",
"..........     ...................       .........     ..........     ..........",
"..........     ..................       ...........   ...........     ..........",
"..........     .................       .........................      ..........",
"..........     ................       ..........................     ...........",
"...........     ..............       ...........................     ...........",
"...........     .............       ............................     ...........",
"...........     ............       ............................      ...........",
"...........     ...........       .............................     ............",
".............  ...........       ..............................     ............",
".........................       ..............................      ............",
".........................      ...............................     .............",
".........................     ...............................      .............",
".................  .......   ...............................      ..............",
"................    ........................................      ..............",
"................     ......................................      ...............",
"................      ....................................      ................",
"................       ..................................       ................",
".................       ................................       .................",
"..................       .............................        ..................",
"...................       ...........................        ...................",
"....................      .........................         ....................",
".....................    ........................          .....................",
"..............................    ...........            .......................",
".............................                           ........................",
".............................                         ..........................",
"..............................                      ............................",
"..............................                   ...............................",
"..................................            ..................................",
"................................................................................",
"................................................................................",
"................................................................................",
"................................................................................",
"................................................................................",
"................................................................................",
"................................................................................",
"................................................................................",
"................................................................................",
"................................................................................"
};
