/* XPM */
static char *_2308_2d3988fdd586d4fc5c61468f20c9898374ce9853528f6e81cbbfd35de1e1766d[] = {
/* columns rows colors chars-per-pixel */
"80 80 2 1 ",
"  c black",
". c None",
/* pixels */
"................................................................................",
"................................................................................",
"................................................................................",
"................................................................................",
"................................................................................",
"................................................................................",
"................................................................................",
"................................................................................",
"................................................................................",
"................................................................................",
"...................................          ...................................",
"...............................                  ...............................",
"............................                        ............................",
"..........................                            ..........................",
".........................                               ........................",
".......................             ........             .......................",
"......................          ................           .....................",
"....................         ......................         ....................",
"...................        ..........................        ...................",
"..................        ............................        ..................",
".................        ...............................       .................",
".................      ..................................       ................",
"................      ....................................      ................",
"...............      ......................................      ...............",
"...............      .......................................      ..............",
"..............      ......                 .................      ..............",
".............      ......                   .................      .............",
".............     .......                   ..................     .............",
"............      .......                   ..................      ............",
"............     ........                  ....................     ............",
"............     ........         .............................     ............",
"...........      ........          .............................     ...........",
"...........     .........           ............................     ...........",
"...........     .........            ...........................     ...........",
"...........     .........     .       ..........................      ..........",
"..........      .........     ..       ..........................     ..........",
"..........     ..........     ...       .........................     ..........",
"..........     ..........     ....       ........................     ..........",
"..........     ..........     .....       .......................     ..........",
"..........     ..........     ......       ......................     ..........",
"..........     ..........     .......       .....................     ..........",
"..........     ..........     ........       ....................     ..........",
"..........     ..........     .........       ...................     ..........",
"..........     ...........   ...........       ..................     ..........",
"..........     ..........................       .................     ..........",
"...........     ..........................       ................     ..........",
"...........     ...........................       ..............     ...........",
"...........     ............................       .............     ...........",
"...........      ............................       ............     ...........",
"............     .............................       ...........     ...........",
"............     ..............................       ...........  .............",
"............      ..............................       .........................",
".............     ...............................      .........................",
".............      ...............................     .........................",
"..............      ...............................   .......  .................",
"..............      ........................................    ................",
"...............      ......................................     ................",
"................      ....................................      ................",
"................       ..................................       ................",
".................       ................................       .................",
"..................        .............................       ..................",
"...................        ...........................       ...................",
"....................         .........................      ....................",
".....................          ........................    .....................",
".......................            ...........    ..............................",
"........................                           .............................",
"..........................                         .............................",
"............................                      ..............................",
"..............................                    ..............................",
"..................................            ..................................",
"................................................................................",
"................................................................................",
"................................................................................",
"................................................................................",
"................................................................................",
"................................................................................",
"................................................................................",
"................................................................................",
"................................................................................",
"................................................................................"
};
