/* XPM */
static char *_6054_0b91f44356b16fe7d114e1ab50453cbbeec4d9eb0406818a5dfc1ae625952bb6[] = {
/* columns rows colors chars-per-pixel */
"80 80 164 2 ",
"   c #000000",
".  c #080705",
"X  c #0C0A06",
"o  c #070808",
"O  c #0B0A09",
"+  c #100E07",
"@  c #110E0B",
"#  c #14110A",
"$  c #1E190D",
"%  c #1A160C",
"&  c #0F0F10",
"*  c #0F1010",
"=  c #151211",
"-  c #1E1A16",
";  c #1C1C1C",
":  c #171615",
">  c #211C0F",
",  c #231E1A",
"<  c #262112",
"1  c #2B2513",
"2  c #26211D",
"3  c #29231E",
"4  c #2F2815",
"5  c #332C17",
"6  c #362E18",
"7  c #3C331B",
"8  c #1E1F20",
"9  c #212224",
"0  c #252628",
"q  c #272829",
"w  c #2B2826",
"e  c #332C26",
"r  c #362F29",
"t  c #392F26",
"y  c #3B3027",
"u  c #37302A",
"i  c #3C342D",
"p  c #2D2E30",
"a  c #363739",
"s  c #363739",
"d  c #40371D",
"f  c #443A1F",
"g  c #483E20",
"h  c #423932",
"j  c #4D3F33",
"k  c #4D4223",
"l  c #504424",
"z  c #564926",
"x  c #5B4E29",
"c  c #5E512A",
"v  c #4D423A",
"b  c #53483E",
"n  c #5A4A3C",
"m  c #67582E",
"M  c #6D5D31",
"N  c #726233",
"B  c #7A6836",
"V  c #786635",
"C  c #454649",
"Z  c #5A4E44",
"A  c #554A40",
"S  c #5E5247",
"D  c #4C4E50",
"F  c #4E5053",
"G  c #57585B",
"H  c #67594D",
"J  c #665546",
"K  c #725D4B",
"L  c #6C5E51",
"P  c #6F6053",
"I  c #736456",
"U  c #766759",
"Y  c #79695B",
"T  c #5C5E62",
"R  c #636569",
"E  c #66696D",
"W  c #696B6F",
"Q  c #76787D",
"!  c #816E3A",
"~  c #86723B",
"^  c #8A763E",
"/  c #8C783E",
"(  c #927C41",
")  c #8B725C",
"_  c #8C7969",
"`  c #877565",
"'  c #917E6D",
"]  c #9C7F67",
"[  c #9B8445",
"{  c #968043",
"}  c #A48C49",
"|  c #AB924C",
" . c #B0964E",
".. c #B49A51",
"X. c #B99E52",
"o. c #BEA254",
"O. c #94806F",
"+. c #968371",
"@. c #9A8573",
"#. c #9E8976",
"$. c #A48E7B",
"%. c #AB8C71",
"&. c #A8917E",
"*. c #B49377",
"=. c #A98A6F",
"-. c #C2A556",
";. c #CAAC5A",
":. c #C6A958",
">. c #D4B55E",
",. c #DCBC62",
"<. c #D7B760",
"1. c #E0BF64",
"2. c #E6C466",
"3. c #E8C667",
"4. c #EAC768",
"5. c #EDCA69",
"6. c #F2CE6B",
"7. c #F6D26D",
"8. c #FAD56F",
"9. c #FCD770",
"0. c #7B7E83",
"q. c #7E8186",
"w. c #818489",
"e. c #86898E",
"r. c #8B8E94",
"t. c #8D9096",
"y. c #90949A",
"u. c #AD9682",
"i. c #B49C87",
"p. c #B69E89",
"a. c #B89F8A",
"s. c #BDA48D",
"d. c #999DA3",
"f. c #9DA1A7",
"g. c #9FA3A9",
"h. c #A1A5AC",
"j. c #AEB2B9",
"k. c #B2B6BD",
"l. c #A9AEB4",
"z. c #D7AF8E",
"x. c #C2A892",
"c. c #CEB29A",
"v. c #D2B69E",
"b. c #D7B598",
"n. c #E7BD99",
"m. c #DBBEA4",
"M. c #D7BAA1",
"N. c #ECC19C",
"B. c #DEC1A7",
"V. c #DFC1A8",
"C. c #E3C4AA",
"Z. c #E7C8AD",
"A. c #E9CAAE",
"S. c #EDCDB2",
"D. c #F0D0B4",
"F. c #B9BEC5",
"G. c #B5BAC1",
"H. c #BEC3CA",
"J. c #BBC0C7",
"K. c #C1C6CD",
"L. c #C6CBD2",
"P. c #C9CED6",
"I. c #CCD1D9",
"U. c None",
/* pixels */
"U.U.U.U.U.U.U.U.U.U.U.U.U.U.U.U.U.U.U.U.U.U.U.U.U.U.U.U.U.U.U.U.U.U.U.U.U.U.U.U.U.U.U.U.U.U.U.U.U.U.U.U.U.U.U.U.U.U.U.U.U.U.U.U.U.U.U.U.U.U.U.U.U.U.U.U.U.U.U.U.",
"U.U.U.U.U.U.U.U.U.U.U.U.U.U.U.U.U.U.U.U.U.U.          U.U.U.U.U.U.U.U.U.U.U.U.U.U.U.U.U.U.U.                  U.U.U.U.U.U.U.U.U.U.U.U.U.U.U.U.U.U.U.U.U.U.U.U.U.",
"U.U.U.U.U.U.U.U.U.U.U.U.U.U.U.U.U.U.U.                      U.U.U.U.U.U.U.U.U.U.U.U.                                  U.U.U.U.U.U.U.U.U.U.U.U.U.U.U.U.U.U.U.U.U.",
"U.U.U.U.U.U.U.U.U.U.U.U.U.U.U.U.U.        X > 6 7 7 1 X             U.U.U.U.              X $ 1 6 7 7 7 6 4 $ X             U.U.U.U.U.U.U.U.U.U.U.U.U.U.U.U.U.U.",
"U.U.U.U.U.U.U.U.U.U.U.U.U.U.U.U.        M o.,.6.8.7.2.;.B $                         . k [ ;.<.2.6.8.9.7.6.3.,.:.[ z .           U.U.U.U.U.U.U.U.U.U.U.U.U.U.U.U.",
"U.U.U.U.U.U.U.U.U.U.U.U.U.U.U.      k <.9.9.9.9.9.9.9.9.9.8.:./ x 4 # . . X < f B ..3.8.9.9.9.9.9.9.9.9.9.9.9.9.9.8.6. .x #       U.U.U.U.U.U.U.U.U.U.U.U.U.U.U.",
"U.U.U.U.U.U.U.U.U.U.U.U.U.U.    # N <.9.9.9.9.9.9.9.9.9.9.9.9.8.3.>.:.-.-.-.>.,.7.9.9.9.9.9.9.9.9.9.9.9.9.9.9.9.9.9.9.9.4...m #       U.U.U.U.U.U.U.U.U.U.U.U.U.",
"U.U.U.U.U.U.U.U.U.U.U.U.U.U.    N 6.9.9.9.9.9.9.9.9.9.9.9.9.9.9.9.9.9.9.9.9.9.9.9.9.9.9.9.9.9.9.9.9.9.9.9.9.9.9.9.9.9.9.9.9.7.} 5       U.U.U.U.U.U.U.U.U.U.U.U.",
"U.U.U.U.U.U.U.U.U.U.U.U.U.    m 3.9.9.9.9.9.9.9.9.9.9.9.9.9.9.9.9.9.9.9.9.9.9.9.9.9.9.9.9.9.9.9.9.9.9.9.9.9.9.9.9.9.9.9.9.9.9.9.9.M #     U.U.U.U.U.U.U.U.U.U.U.",
"U.U.U.U.U.U.U.U.U.U.U.U.      >.9.9.9.9.9.9.9.9.9.9.9.9.9.9.9.9.9.9.9.9.9.9.9.9.9.9.9.9.9.9.9.9.9.9.9.9.9.9.9.9.9.9.9.9.9.9.9.9.9.7.} #     U.U.U.U.U.U.U.U.U.U.",
"U.U.U.U.U.U.U.U.U.U.U.U.    z 9.9.9.9.9.9.9.9.9.9.9.9.9.9.9.9.9.9.9.9.9.9.9.9.9.9.9.9.9.9.9.9.9.9.9.9.9.9.9.9.9.9.9.9.9.9.9.9.9.9.9.8.X.#     U.U.U.U.U.U.U.U.U.",
"U.U.U.U.U.U.U.U.U.U.U.U.  X o.9.9.9.9.9.9.9.9.9.9.9.9.9.9.9.9.9.9.9.9.9.9.9.9.9.9.9.9.9.9.9.9.9.9.9.9.9.9.9.9.9.9.9.9.9.9.9.9.9.9.9.9.9.o.1     U.U.U.U.U.U.U.U.",
"U.U.U.U.U.U.U.U.U.U.U.    > ,.9.9.9.9.9.9.9.9.9.9.9.9.9.9.9.9.9.9.9.9.9.9.9.9.9.9.9.9.9.9.9.9.9.9.9.9.9.9.9.9.9.9.9.9.9.9.9.9.9.9.9.9.9.9.X.+     U.U.U.U.U.U.U.",
"U.U.U.U.U.U.U.U.U.U.U.    5 6.9.9.9.9.9.9.9.9.9.9.9.9.9.9.9.9.9.9.9.9.9.9.9.9.9.9.9.9.9.9.9.9.9.9.9.9.9.9.9.9.9.9.9.9.9.9.9.9.9.9.9.9.9.9.8.! +     U.U.U.U.U.U.",
"U.U.U.U.U.U.U.U.U.U.U.    7 8.9.9.9.9.9.9.9.9.9.9.9.9.9.9.9.9.9.9.9.9.9.9.9.9.9.9.9.9.9.9.9.9.9.9.9.9.9.9.9.9.9.9.9.9.9.9.9.9.9.9.9.9.9.9.9.7.M     U.U.U.U.U.U.",
"U.U.U.U.U.U.U.U.U.U.U.    7 8.9.9.9.9.9.9.9.9.9.9.9.9.9.9.9.9.9.9.9.9.9.9.9.9.9.9.9.9.9.9.9.9.9.9.9.9.9.9.9.9.9.9.9.9.9.9.9.9.9.9.9.9.9.9.9.9.,.f     U.U.U.U.U.",
"U.U.U.U.U.U.U.U.U.U.U.    6 7.9.9.9.9.9.9.9.9.9.9.9.9.9.9.9.9.9.9.9.9.9.9.9.9.9.9.9.9.9.9.9.9.9.9.9.9.9.9.9.9.9.9.9.9.9.9.9.9.9.9.9.9.9.9.9.9.8...    U.U.U.U.U.",
"U.U.U.U.U.U.U.U.U.U.U.    1 3.9.9.9.9.9.9.9.9.9.9.9.9.9.9.9.9.9.9.9.9.9.9.9.9.9.9.9.9.9.9.9.9.9.9.9.9.9.9.9.9.9.9.9.9.9.9.9.9.9.9.9.9.9.9.9.9.9.8.7     U.U.U.U.",
"U.U.U.U.U.U.U.U.U.U.U.U.  + ;.9.9.9.9.9.9.9.9.9.9.9.9.9.9.9.9.9.9.9.9.9.9.9.9.9.9.9.9.9.9.9.9.9.9.9.9.9.9.9.9.9.9.9.9.9.9.9.9.9.9.9.9.9.9.9.9.9.9.| X   U.U.U.U.",
"U.U.U.U.U.U.U.U.U.U.U.U.    B 9.9.9.9.9.9.9.9.9.9.9.9.9.9.9.9.9.9.9.9.9.9.9.9.9.9.9.9.9.9.9.9.9.9.9.9.9.9.9.9.9.9.9.9.9.9.9.9.9.9.9.9.9.9.9.9.9.9.5.6     U.U.U.",
"U.U.U.U.U.U.U.U.U.U.U.U.    X ,.9.9.9.9.9.9.9.9.9.9.9.9.9.9.9.9.9.9.9.9.9.9.9.9.9.9.9.9.9.9.9.9.9.9.9.9.9.9.9.9.9.9.9.9.9.9.9.9.9.9.9.9.9.9.9.9.9.9.[     U.U.U.",
"U.U.U.U.U.U.U.U.U.U.U.U.U.    M 3.9.9.9.9.9.9.9.9.9.9.9.9.9.9.9.9.>.( z f l ~ :.8.9.9.9.9.9.9.9.9.9.9.9.9.9.9.9.9.9.9.9.9.9.9.9.9.9.9.9.9.9.9.9.9.9.4.X     U.U.",
"U.U.U.U.U.U.U.U.U.U.U.U.U.    X ( 8.9.9.9.9.9.9.9.9.9.9.9.9.9.9.:.6           > ..8.9.9.9.9.9.9.9.9.9.9.9.9.9.9.9.9.9.9.9.9.9.9.9.9.9.9.9.9.9.9.9.9.9.7     U.U.",
"U.U.U.U.U.U.U.U.U.U.U.U.U.U.    X V 2.9.9.9.9.9.9.9.9.9.9.9.5.( X     w u w .   X } 9.9.9.9.9.9.9.9.9.9.9.9.9.9.9.9.9.9.9.9.9.9.9.9.9.9.9.9.9.9.9.9.9.N     U.U.",
"U.U.U.U.U.U.U.U.U.U.U.U.U.U.U.    . f ,.9.9.9.9.9.9.9.9.9.6.z O   X _ B.S.C.#.@   f 3.9.9.9.9.9.9.9.9.9.9.9.9.9.9.9.9.9.9.9.9.9.9.9.9.9.9.9.9.9.9.9.9.[ X   U.U.",
"U.U.U.U.U.U.U.U.U.U.U.U.U.U.U.U.      X c [ ;.6.8.7.1.X.M %     3 s.D.D.S.D.D._   O [ 9.9.9.9.9.9.9.9.9.9.9.9.9.9.9.9.9.9.9.9.9.9.9.9.9.9.9.9.9.9.9.9.o.>     U.",
"U.U.U.U.U.U.U.U.U.U.U.U.U.U.U.U.U.        + < 7 7 7 5 $     # Z s.D.D.D.D.D.D.C.@   x 9.9.9.9.9.9.9.9.9.9.9.9.9.9.9.9.9.9.9.9.9.9.9.9.9.9.9.9.9.9.9.9.<.4     U.",
"U.U.U.U.U.U.U.U.U.U.U.U.U.U.U.U.U.U.U.                    e +.V.D.D.D.D.D.D.D.S.h   $ 8.9.9.9.9.9.9.9.9.9.9.9.9.9.9.9.9.9.9.9.9.9.9.9.9.9.9.9.9.9.9.9.3.6     U.",
"U.U.U.U.U.U.U.U.U.U.U.U.U.U.U.U.U.U.U.U.U.U.      = Z ` M.D.D.D.D.D.D.D.D.D.D.D._ .    .9.9.9.9.9.9.9.9.9.9.9.9.9.9.9.9.9.9.9.9.9.9.9.9.9.9.9.9.9.9.9.7.7     U.",
"U.U.U.U.U.U.U.U.U.U.U.U.U.U.U.U.U.U.U.U.U.U.U.    J Z.D.D.D.D.D.D.D.D.D.D.D.D.D.c.3   f 7.9.9.9.9.9.9.9.9.9.9.9.9.9.9.9.9.9.9.9.9.9.9.9.9.9.9.9.9.9.9.8.7     U.",
"U.U.U.U.U.U.U.U.U.U.U.U.U.U.U.U.U.U.U.U.U.U.U.    +.D.D.D.D.D.D.D.D.D.D.D.D.D.D.D.U   X | 8.9.9.9.9.9.9.9.9.9.9.9.9.9.9.9.9.9.9.9.9.9.9.9.9.9.9.9.9.9.6.7     U.",
"U.U.U.U.U.U.U.U.U.U.U.U.U.U.U.U.U.U.U.U.U.U.U.    i.D.D.D.D.D.D.D.D.D.D.D.D.D.D.D.s.3   1 <.9.9.9.9.9.9.9.9.9.9.9.9.9.9.9.9.9.9.9.9.9.9.9.9.9.9.9.9.9.2.6     U.",
"U.U.U.U.U.U.U.U.U.U.U.U.U.U.U.U.U.U.U.U.U.U.U.    c.D.D.D.D.D.D.D.D.D.D.D.D.D.D.D.S._     x 1.9.9.9.4...^ ~ } 5.9.9.9.9.9.9.9.9.9.9.9.9.9.9.9.9.9.9.9.,.4     U.",
"U.U.U.U.U.U.U.U.U.U.U.U.U.U.U.U.U.U.U.U.U.U.U.    Z.D.D.D.D.D.D.S.D.D.D.D.D.D.D.D.D.D.Z     f >.7.| #         # { 7.9.9.9.9.9.9.9.9.9.9.9.9.9.9.9.9.9.-.>     U.",
"U.U.U.U.U.U.U.U.U.U.U.U.U.U.U.U.U.U.U.U.U.U.U.    S.D.D.D.D.D.C.U &.D.D.D.D.D.D.D.D.D.V.j     $ M X             + / 8.8.9.9.9.9.9.9.9.9.9.9.9.9.9.9.9.| #   U.U.",
"U.U.U.U.U.U.U.U.U.U.U.U.U.U.U.U.U.U.U.U.U.U.      S.D.D.D.D.m.Z   O i.D.D.D.D.D.D.D.D.D.S.H O       2 @.V.Z.u.,   X 2.8.9.9.9.9.9.9.9.9.9.9.9.9.9.9.9.~ .   U.U.",
"U.U.U.U.U.U.U.U.U.U.U.U.U.U.U.U.U.U.U.U.U.U.      D.D.D.S.C.Z O   h v.D.D.D.D.D.D.D.D.D.D.V.' r   , i.S.S.D.D.+.=   / 9.9.9.9.9.9.9.9.9.9.9.9.9.9.9.9.c     U.U.",
"U.U.U.U.U.U.U.U.U.U.U.U.U.U.U.U.U.U.U.U.U.U.      D.D.D.Z.I     2 v.D.D.D.D.D.D.D.D.D.D.D.D.D.M.I u.D.D.D.D.S.B.e   l 9.9.9.9.9.9.9.9.9.9.9.9.9.9.9.9.6     U.U.",
"U.U.U.U.U.U.U.U.U.U.U.U.U.U.U.U.U.U.U.U.U.U.      D.D.S.S     O I M.D.D.D.D.D.D.D.D.D.D.D.D.D.D.D.D.D.D.D.D.D.S.u   f 8.9.9.9.9.9.9.9.9.9.9.9.9.9.9.5..     U.U.",
"U.U.U.U.U.U.U.U.U.U.U.U.U.U.U.U.U.U.U.U.U.U.      D.D.S.#.,       3 Y S.D.D.D.D.D.D.D.D.D.D.D.D.D.D.D.D.D.D.D.M.e   c 9.9.9.9.9.9.9.9.9.9.9.9.9.9.9.}     U.U.U.",
"U.U.U.U.U.U.U.U.U.U.U.U.U.U.U.U.U.U.U.U.U.U.    @ S.D.D.D.S.+.h .     i.D.D.D.D.D.D.D.D.D.D.D.D.D.D.D.D.D.D.D.&.=   { 9.9.9.9.9.9.9.9.9.9.9.9.9.8.8.f     U.U.U.",
"U.U.U.U.U.U.U.U.U.U.U.        U.U.U.U.U.U.U.    , D.D.D.D.D.S.M.+.u h S.D.D.D.D.D.D.D.D.D.D.D.D.D.D.D.D.D.D.D.L   . >.9.9.9.9.9.9.9.9.9.9.9.9.9.9.<.>     U.U.U.",
"U.U.U.U.U.U.U.U.U.U.              U.U.U.U.U.    r D.D.D.D.D.D.D.D.m.c.S.D.D.D.D.D.D.D.D.D.D.D.D.D.D.D.D.D.D.Z.-   4 9.9.9.9.9.9.9.9.9.9.9.9.9.9.9.[     U.U.U.U.",
"U.U.U.U.U.U.U.U.U.    O q q O         U.U.U.    H D.D.D.D.D.D.D.D.D.D.D.D.D.D.D.D.D.D.D.D.D.D.D.D.D.D.D.D.A.S   X ( 9.9.9.9.9.9.9.9.9.9.9.9.9.9.7.>     U.U.U.U.",
"U.U.U.U.U.U.U.U.U.    T H.L.f.p       U.U.U.    @.S.D.D.D.D.D.D.D.D.D.D.D.D.D.D.D.D.D.D.D.D.D.D.D.D.D.D.D._ O   k 5.9.9.9.9.9.9.9.9.9.9.9.9.9.9...    U.U.U.U.U.",
"U.U.U.U.U.U.U.U.U.    y.I.I.I.P.d.F G U.U.U.  O x.D.D.D.D.D.D.D.D.D.D.D.D.D.D.D.D.D.D.D.D.D.D.D.D.D.D.Z._     6 ;.9.9.9.9.9.9.9.9.9.9.9.9.9.9.,.f     U.U.U.U.U.",
"U.U.U.U.U.U.U.U.U.    T H.I.I.I.I.H.F.U.U.    = &.m.A.S.D.D.D.D.D.D.D.D.D.D.D.D.D.D.D.D.D.D.D.D.D.D.D.C.P     f >.9.9.9.9.9.9.9.9.9.9.9.9.9.9.[ .   U.U.U.U.U.U.",
"U.U.U.U.U.U.U.U.U.    O D d.I.I.I.I.I.U.U.      # v H U i.D.D.D.D.D.D.D.D.D.D.D.D.D.D.D.D.D.D.D.D.D.D.S.m.i     m 3.9.9.9.9.9.9.9.9.9.9.9.9.,.7     U.U.U.U.U.U.",
"U.U.U.U.U.U.U.U.U.U.        D K.I.I.I.U.U.U.            h S.D.D.D.D.D.D.D.D.D.D.D.D.D.D.D.D.D.D.D.D.D.D.D.C.v     d 5.9.9.9.9.9.9.9.9.9.9.9.x     U.U.U.U.U.U.U.",
"U.U.U.U.U.U.U.U.U.U.U.        R L.I.I.U.U.U.U.U.        2 M.D.D.D.D.D.D.D.D.D.D.D.D.D.D.D.D.D.D.D.D.D.D.D.D.C.i     l 5.9.9.9.9.9.9.9.9.9.o.X     U.U.U.U.U.U.U.",
"U.U.U.U.U.U.U.U.U.U.U.U.U.    : h.I.I.U.U.U.U.U.U.U.U.  O x.D.D.D.D.D.D.D.D.D.D.D.D.D.D.D.D.D.D.D.D.D.D.D.D.D.m.Z     d 3.9.9.9.9.9.9.9.>.>     U.U.U.U.U.U.U.U.",
"U.U.U.U.U.U.U.U.U.U.U.U.U.U.  o f.I.I.U.U.U.U.U.U.U.U.    ' D.S.D.D.D.D.D.D.D.D.D.D.D.D.D.D.D.D.D.D.D.D.D.D.D.D.c.Z     c <.9.9.9.9.9.4.g     U.U.U.U.U.U.U.U.U.",
"U.U.U.U.U.                    9 l.I.I.U.U.U.  U.U.U.U.    e Y Y Y Y Y Y v.D.D.D.D.D.D.D.D.D.D.D.D.D.D.D.D.D.D.D.D.m.i     x 3.9.9.9.6.^       U.U.U.U.U.U.U.U.U.",
"U.U.                          q.P.I.I.U.U.      U.U.U.                  i.D.D.D.D.D.D.D.D.D.D.D.D.D.D.D.D.D.D.D.D.D.C.v     d 5.9.8./       U.U.U.U.U.U.U.U.U.U.",
"U.U.                      9 w.P.I.I.I.U.U.      U.U.U.U.              @ s.S.D.D.D.D.D.D.D.D.D.D.D.D.D.D.D.D.D.D.D.D.D.C.h     k 5.| %     U.U.U.U.U.U.U.U.U.U.U.",
"U.    8 j.I.I.I.I.I.I.I.I.I.I.I.I.I.I.U.U.U.U.U.U.U.U.U.U.U.U.U.U.    u v.D.D.D.D.D.D.D.D.D.D.D.D.D.D.D.D.D.D.D.D.D.D.D.m.Z     7 #     U.U.U.U.U.U.U.U.U.U.U.U.",
"U.    0 F.I.I.I.I.I.I.I.I.I.I.I.I.I.I.U.U.U.U.U.U.U.U.U.U.U.U.U.U.    U Z.D.D.D.D.D.D.D.D.D.D.D.D.D.D.D.D.D.D.D.D.D.D.D.D.c.Z         U.U.U.U.U.U.U.U.U.U.U.U.U.",
"U.    o D E E E E E E E W w.K.I.I.I.k.9   U.U.U.U.U.U.U.U.U.U.U.    . c.D.D.D.D.D.D.D.D.D.D.D.D.D.D.D.D.D.D.D.D.D.D.D.D.D.D.m.i       U.U.U.U.U.U.U.U.U.U.U.U.U.",
"U.U.                        ; j.I.I.d.    U.U.U.U.U.U.U.U.U.U.    . #.D.D.D.D.D.D.D.D.D.D.D.D.D.D.D.D.D.D.D.D.D.D.D.D.D.D.D.D.i.    U.U.U.U.U.U.U.U.U.U.U.U.U.U.",
"U.U.U.                        D H.I.d.    0.U.U.U.U.U.U.U.U.U.    O a.D.D.D.D.D.D.D.D.D.D.D.D.D.D.D.D.D.D.D.D.D.D.D.D.D.D.D.D.i.    U.U.U.U.U.U.U.U.U.U.U.U.U.U.",
"U.U.U.U.U.U.U.U.U.U.U.U.U.U.  & h.I.I.I.I.I.I.d.    U.U.U.U.U.U.    2 M.D.D.D.D.D.D.D.D.D.D.D.D.D.D.D.D.D.D.D.D.D.D.D.D.D.D.D.i.    U.U.U.U.U.U.U.U.U.U.U.U.U.U.",
"U.U.U.U.U.U.U.U.U.U.U.U.U.U.  O g.I.I.I.I.I.I.d.    y.U.U.U.U.U.U.    A x.D.D.D.D.D.D.D.D.D.D.D.C.c.a.' L ' D.D.D.D.D.D.D.D.D.i.    U.U.U.U.U.U.U.U.U.U.U.U.U.U.",
"U.U.U.U.U.U.U.U.U.U.U.U.U.    q j.I.I.I.I.I.I.k.E E k.I.U.U.U.U.U.      i $.S.D.S.D.D.D.D.B.i._ S r O     h D.D.D.D.D.D.D.D.D.i.    U.U.U.U.U.U.U.U.U.U.U.U.U.U.",
"U.U.U.U.U.U.U.U.U.U.U.U.    o e.I.I.I.I.I.I.I.I.I.I.I.I.U.U.U.U.U.U.        - P $.u.#.H 3             O , b C.D.D.D.D.D.D.D.D.i.    U.U.U.U.U.U.U.U.U.U.U.U.U.U.",
"U.U.U.U.U.U.U.U.U.U.      O 0.L.I.I.I.I.I.I.I.I.I.I.P.I.I.U.U.U.U.U.U.U.                              O.v.S.D.D.D.D.D.D.D.D.D.i.    U.U.U.U.U.U.U.U.U.U.U.U.U.U.",
"U.U.U.U.U.U.U.U.U.      9 t.I.I.I.I.I.I.I.I.I.I.I.I.s     U.U.U.U.U.U.U.U.U.              U.U.U.U.  O s.D.D.D.D.D.D.D.D.D.D.D.i.    U.U.U.U.U.U.U.U.U.U.U.U.U.U.",
"U.U.U.U.U.U.U.U.      C g.P.I.I.L.d.T a C 0.F.I.I.I.s     U.U.U.U.U.U.U.U.U.U.U.U.U.U.U.U.U.U.U.    e c.D.D.D.D.D.D.D.D.D.D.D.i.    U.U.U.U.U.U.U.U.U.U.U.U.U.U.",
"U.U.U.U.U.U.U.U.    a G.I.I.I.P.0.:       o F I.I.I.q.E E U.U.U.U.U.U.U.U.U.U.U.U.U.U.U.U.U.U.U.    U A.D.D.D.D.D.D.D.D.D.D.D.i.    U.U.U.U.U.U.U.U.U.U.U.U.U.U.",
"U.U.U.U.U.U.U.U.    F.I.I.I.K.C o             r.I.I.I.I.P.U.U.U.U.U.U.U.U.U.U.U.U.U.U.U.U.U.      : V.D.D.D.D.D.D.D.Z.c.s.s.s.'     U.U.U.U.U.U.U.U.U.U.U.U.U.U.",
"U.U.U.U.U.U.U.U.    j.I.I.G.a       U.U.U.    C I.I.I.I.I.U.U.U.U.U.U.U.U.U.U.U.U.U.U.U.U.      - s.D.D.D.D.D.D.C.@.e - .     O     U.U.U.U.U.U.U.U.U.U.U.U.U.U.",
"U.U.U.U.U.U.U.U.    q q.Q 0       U.U.U.U.    C I.I.I.I.I.U.U.U.U.U.U.U.U.U.U.U.U.U.U.      X b m.D.D.D.D.S.D.O.w                       U.U.U.U.U.U.U.U.U.U.U.U.",
"U.U.U.U.U.U.U.U.      O O       U.U.U.U.      q.I.I.I.I.I.U.U.U.U.U.U.U.U.U.U.U.U.U.      , ` M.D.D.D.D.D.Z.` #   . e K ] %.%.) n ,       U.U.U.U.U.U.U.U.U.U.U.",
"U.U.U.U.U.U.U.U.U.          U.U.U.U.U.U.    q L.I.I.I.J.P.U.U.U.U.U.U.U.U.U.U.U.U.      2 i.S.D.D.D.D.D.D.+.O   % K b.N.N.N.N.N.n.*.j       U.U.U.U.U.U.U.U.U.U.",
"U.U.U.U.U.U.U.U.U.U.U.U.U.U.U.U.U.U.U.    a k.I.I.P.t.; a U.U.U.U.U.U.U.U.U.U.U.      h m.D.S.D.D.D.D.D.x.    , *.n.N.N.N.N.N.N.N.N.n.)       U.U.U.U.U.U.U.U.U.",
"U.U.U.U.U.U.U.U.U.U.U.U.U.U.U.U.U.U.U.    r.I.I.I.E =     U.U.U.U.U.U.U.U.U.U.U.    - m.D.D.D.D.D.D.D.B.Z     *.n.N.N.N.N.N.N.N.N.N.N.n.J     U.U.U.U.U.U.U.U.U.",
"U.U.U.U.U.U.U.U.U.U.U.U.U.U.U.U.U.U.U.    R K.g.a       U.U.U.U.U.U.U.U.U.U.U.    = &.D.D.D.D.D.D.D.S.u.O   K N.N.N.N.N.N.N.N.N.N.N.N.N.z.2     U.U.U.U.U.U.U.U.",
"U.U.U.U.U.U.U.U.U.U.U.U.U.U.U.U.U.U.U.    * p 8       U.U.U.U.U.U.U.U.U.U.U.U.    O e i i i i i i i i 2     2 y h t y y y y y y y y y y t O     U.U.U.U.U.U.U.U.",
"U.U.U.U.U.U.U.U.U.U.U.U.U.U.U.U.U.U.U.U.            U.U.U.U.U.U.U.U.U.U.U.U.U.                                                                    U.U.U.U.U.U.U.",
"U.U.U.U.U.U.U.U.U.U.U.U.U.U.U.U.U.U.U.U.U.      U.U.U.U.U.U.U.U.U.U.U.U.U.U.U.                                                                    U.U.U.U.U.U.U.",
"U.U.U.U.U.U.U.U.U.U.U.U.U.U.U.U.U.U.U.U.U.U.U.U.U.U.U.U.U.U.U.U.U.U.U.U.U.U.U.U.U.U.U.U.U.U.U.U.U.U.U.U.U.U.U.U.U.U.U.U.U.U.U.U.U.U.U.U.U.U.U.U.U.U.U.U.U.U.U.U."
};
