/* XPM */
static char *_1164_f974ff13f5da758652ba96107dc6bab7ee409a96c58340a8a137464ac939afac[] = {
/* columns rows colors chars-per-pixel */
"80 80 2 1 ",
"  c black",
". c None",
/* pixels */
".......................................  .......................................",
".......................................  .......................................",
".......................................  .......................................",
".......................................  .......................................",
"..................................            ..................................",
"..............................                    ..............................",
"...........................                          ...........................",
".........................                              .........................",
".......................                                  .......................",
".....................                                      .....................",
"....................                                         ...................",
"..................                                            ..................",
".................                  ....  ....                  .................",
"................               ........  ........               ................",
"...............             ...........  ...........             ...............",
"..............             ............  ............             ..............",
".............            .....   ..............   .....            .............",
"............           ......      ..........      ......           ............",
"...........           ........      ........      ........           ...........",
"...........          .............   ......   .............           ..........",
"..........          ...............   ....   ...............          ..........",
".........          ................   ....   ................          .........",
".........         ..................   ..   ..................         .........",
"........         ..................          ..................         ........",
"........         ................              ................         ........",
".......         .................    ......    .................         .......",
".......         ................   ..........   ................         .......",
"......         .................   ..........   .................         ......",
"......        ..................   ..........   ..................        ......",
"......        ..................   ..........   ..................        ......",
".....         ..................   ..........   ..................         .....",
".....        ...................   ..........   ...................        .....",
".....        ...................   ..........   ...................        .....",
".....        ......... ......                      ...... .........        .....",
"....         ........   ....                        ....   ........         ....",
"....        .........   ....                        ....   .........        ....",
"....        .........   ....                        ....   .........        ....",
"....        .........   ....                        ....   .........        ....",
"....        .........   ....                        ...    .........        ....",
"                .....             ..                      ......                ",
"                ......           ...                     .......                ",
"....        ................     ...                ................        ....",
"....        ................     ...                ................        ....",
"....        ................     ...                ................        ....",
"....        ..........           ...                      ..........        ....",
"....         ........            ...                       ........         ....",
".....        .........            .                       .........        .....",
".....        ...............                ..      ...............        .....",
".....        ...............                ...     ...............        .....",
".....         .........                     ...         ..........         .....",
"......        ........                      ...          .........        ......",
"......        .......                       ...           ........        ......",
"......         ......   ....                ...     ....   ......         ......",
".......         .....   ....                ...     ....   .....         .......",
".......         .....   ....                 .      ....   .....         .......",
"........         ....   ....                        ....   ....         ........",
"........         ....   .....                      .....   ....         ........",
".........         ............                     ...........         .........",
".........          ............        ..        ............          .........",
"..........          ............     ......     ............          ..........",
"..........           ......................................           ..........",
"...........           ....................................           ...........",
"............           ..................................           ............",
".............            ..............................            .............",
"..............             ............  ............             ..............",
"...............             ...........  ...........             ...............",
"................               ........  ........               ................",
".................                  ....  ....                  .................",
"..................                                            ..................",
"...................                                          ...................",
".....................                                      .....................",
".......................                                  .......................",
".........................                              .........................",
"...........................                          ...........................",
"..............................                    ..............................",
"..................................            ..................................",
".......................................  .......................................",
".......................................  .......................................",
".......................................  .......................................",
".......................................  ......................................."
};
