/* XPM */
static char *_2433_c170d5b62519a65d9379d971185fa810739b2e61b28a66af0ab5000a5310c0ce[] = {
/* columns rows colors chars-per-pixel */
"80 80 2 1 ",
"  c black",
". c None",
/* pixels */
".                                                   ..                         .",
"                                                    ..                          ",
"                                                    ...                         ",
"   ............................   ............................   ............   ",
"   ............................   ............................   ............   ",
"   ............................   ............................   ............   ",
"   ............................   ............................   ............   ",
"   ............................   ............................   ............   ",
"   ............................   ............................   ............   ",
"   ............................   ............................   ............   ",
"   ............................   ............................   ............   ",
"   ............................   ............................   ............   ",
"   ............................   ............................   ............   ",
"   ............................   ............................   ............   ",
"   ............................   ............................   ............   ",
"   ...........................     ..........................    ............   ",
"                                                                                ",
"                                                                                ",
"   ............   ............................   ............................   ",
"   ............   ............................   ............................   ",
"   ............   ............................   ............................   ",
"   ............   ............................   ............................   ",
"   ............   ............................   ............................   ",
"   ............   ............................   ............................   ",
"   ............   ............................   ............................   ",
"   ............   ............................   ............................   ",
"   ............   ............................   ............................   ",
"   ............   ............................   ............................   ",
"   ............   ............................   ............................   ",
"   ............   ............................   ............................   ",
"   ............   ............................   ............................   ",
"                                                       ..                       ",
"                                                       ..                       ",
"                                                      ....                      ",
"   ............................   ............................   ............   ",
"   ............................   ............................   ............   ",
"   ............................   ............................   ............   ",
"   ............................   ............................   ............   ",
"   ............................   ............................   ............   ",
"   ............................   ............................   ............   ",
"   ............................   ............................   ............   ",
"   ............................   ............................   ............   ",
"   ............................   ............................   ............   ",
"   ............................   ............................   ............   ",
"   ............................   ............................   ............   ",
"   ............................   ............................   ............   ",
"                                                                                ",
"                                                                                ",
"                                                                                ",
"   ............   ............................   ............................   ",
"   ............   ............................   ............................   ",
"   ............   ............................   ............................   ",
"   ............   ............................   ............................   ",
"   ............   ............................   ............................   ",
"   ............   ............................   ............................   ",
"   ............   ............................   ............................   ",
"   ............   ............................   ............................   ",
"   ............   ............................   ............................   ",
"   ............   ............................   ............................   ",
"   ............   ............................   ............................   ",
"   ............   ............................   ............................   ",
"   ............   ............................   ............................   ",
"                         ..                                                     ",
"                         ..                                                     ",
"                        .....                                                   ",
"   ............................   ............................   ............   ",
"   ............................   ............................   ............   ",
"   ............................   ............................   ............   ",
"   ............................   ............................   ............   ",
"   ............................   ............................   ............   ",
"   ............................   ............................   ............   ",
"   ............................   ............................   ............   ",
"   ............................   ............................   ............   ",
"   ............................   ............................   ............   ",
"   ............................   ............................   ............   ",
"   ............................   ............................   ............   ",
"   ............................   ............................   ............   ",
"                                                                                ",
"                                                                                ",
".                                                                               "
};
